# This file uses centimeters as units for non-parametric coordinates.

mtllib entradaizq.mtl
g default
v 2.429500 0.464000 -1.644500
v 2.429500 4.390000 -1.644500
v 2.429500 4.390000 -2.119500
v 2.429500 0.464000 -2.119500
v 0.976440 0.464000 -1.644500
v 0.976440 0.464000 -2.119500
v 0.976440 4.390000 -2.119500
v 0.976440 4.390000 -1.644500
vt 0.500173 0.998360
vt 0.500181 0.010941
vt 0.994530 0.007975
vt 0.991871 0.997035
vt 0.503803 0.997137
vt 0.008231 0.997137
vt 0.501136 -0.001027
vt 0.002914 -0.002352
vt 0.994530 1.007975
vt 0.252914 -0.752352
vt 0.258231 0.747137
vn 0.000000 0.000000 1.000000
vn 0.000000 0.000000 1.000000
vn 0.000000 0.000000 1.000000
vn 0.000000 0.000000 1.000000
vn 0.000000 1.000000 0.000000
vn 0.000000 1.000000 0.000000
vn 0.000000 1.000000 0.000000
vn 0.000000 1.000000 0.000000
vn 0.000000 0.000000 -1.000000
vn 0.000000 0.000000 -1.000000
vn 0.000000 0.000000 -1.000000
vn 0.000000 0.000000 -1.000000
vn 0.000000 -1.000000 0.000000
vn 0.000000 -1.000000 0.000000
vn 0.000000 -1.000000 0.000000
vn 0.000000 -1.000000 0.000000
vn 1.000000 0.000000 0.000000
vn 1.000000 0.000000 0.000000
vn 1.000000 0.000000 0.000000
vn 1.000000 0.000000 0.000000
vn -1.000000 0.000000 0.000000
vn -1.000000 0.000000 0.000000
vn -1.000000 0.000000 0.000000
vn -1.000000 0.000000 0.000000
s off
g pCube6
usemtl entradaizq_lambert46SG
f 8/1/1 5/2/2 1/3/3 2/4/4
usemtl entradaizq_lambert47SG
f 7/5/5 8/1/6 2/4/7 3/6/8
usemtl entradaizq_lambert46SG
f 6/7/9 7/5/10 3/6/11 4/8/12
usemtl entradaizq_lambert47SG
f 5/2/13 6/7/14 4/8/15 1/9/16
f 1/3/17 4/10/18 3/11/19 2/4/20
f 6/7/21 5/2/22 8/1/23 7/5/24
