# This file uses centimeters as units for non-parametric coordinates.

mtllib idwindow.mtl
g default
v -1.739686 4.378328 -7.557558
v -1.739686 4.378328 -4.298859
v -1.739686 0.748869 -7.557555
v -1.739686 0.748869 -4.298857
v -1.600882 4.378331 -4.298859
v -1.600882 4.378331 -7.557558
v -1.600882 0.748868 -4.298857
v -1.600882 0.748868 -7.557555
vt 0.859140 0.227930
vt 0.754614 0.227930
vt 0.754614 0.016669
vt 0.859140 0.016669
vt 0.245386 0.227930
vt 0.140860 0.227930
vt 0.140860 0.016669
vt 0.245386 0.016669
vn 1.000000 0.000000 0.000000
vn 1.000000 0.000000 0.000000
vn 1.000000 0.000000 0.000000
vn 1.000000 0.000000 0.000000
vn -1.000000 0.000000 0.000000
vn -1.000000 0.000000 0.000000
vn -1.000000 0.000000 0.000000
vn -1.000000 0.000000 0.000000
vn -0.000024 1.000000 0.000000
vn -0.000024 1.000000 0.000000
vn -0.000024 1.000000 0.000000
vn -0.000024 1.000000 0.000000
vn 0.000001 -0.000001 -1.000000
vn 0.000001 -0.000001 -1.000000
vn 0.000001 -0.000001 -1.000000
vn 0.000001 -0.000001 -1.000000
vn -0.000007 -1.000000 0.000000
vn -0.000007 -1.000000 0.000000
vn -0.000007 -1.000000 0.000000
vn -0.000007 -1.000000 0.000000
vn 0.000001 0.000001 1.000000
vn 0.000001 0.000001 1.000000
vn 0.000001 0.000001 1.000000
vn 0.000001 0.000001 1.000000
s off
g polySurface7 polySurface1 pasted__pCube4group8
usemtl lambert61SG
f 6/1/1 5/2/2 7/3/3 8/4/4
f 2/5/5 1/6/6 3/7/7 4/8/8
f 5/2/9 6/1/10 1/6/11 2/5/12
f 6/1/13 8/4/14 3/7/15 1/6/16
f 8/4/17 7/3/18 4/8/19 3/7/20
f 7/3/21 5/2/22 2/5/23 4/8/24
