# This file uses centimeters as units for non-parametric coordinates.

mtllib siwindow.mtl
g default
v 3.845554 4.323224 -1.125006
v 3.845554 4.323224 -4.034537
v 3.845554 0.769492 -1.125006
v 3.845554 0.769492 -4.034537
v 3.631015 4.323224 -4.034537
v 3.631015 4.323224 -1.125006
v 3.631015 0.769492 -4.034537
v 3.631015 0.769492 -1.125006
vt 0.746136 0.224722
vt 0.652810 0.224722
vt 0.652810 0.017869
vt 0.746136 0.017869
vt 0.347190 0.224722
vt 0.253864 0.224722
vt 0.253864 0.017869
vt 0.347190 0.017869
vn 1.000000 0.000000 0.000000
vn 1.000000 0.000000 0.000000
vn 1.000000 0.000000 0.000000
vn 1.000000 0.000000 0.000000
vn -1.000000 0.000000 0.000000
vn -1.000000 0.000000 0.000000
vn -1.000000 0.000000 0.000000
vn -1.000000 0.000000 0.000000
vn 0.000000 -1.000000 0.000000
vn 0.000000 -1.000000 0.000000
vn 0.000000 -1.000000 0.000000
vn 0.000000 -1.000000 0.000000
vn 0.000000 0.000000 -1.000000
vn 0.000000 0.000000 -1.000000
vn 0.000000 0.000000 -1.000000
vn 0.000000 0.000000 -1.000000
vn 0.000000 1.000000 0.000000
vn 0.000000 1.000000 0.000000
vn 0.000000 1.000000 0.000000
vn 0.000000 1.000000 0.000000
vn 0.000000 0.000000 1.000000
vn 0.000000 0.000000 1.000000
vn 0.000000 0.000000 1.000000
vn 0.000000 0.000000 1.000000
s off
g polySurface8 pCube4
usemtl lambert61SG
f 2/1/1 1/2/2 3/3/3 4/4/4
f 6/5/5 5/6/6 7/7/7 8/8/8
f 4/4/9 3/3/10 8/8/11 7/7/12
f 2/1/13 4/4/14 7/7/15 5/6/16
f 1/2/17 2/1/18 5/6/19 6/5/20
f 3/3/21 1/2/22 6/5/23 8/8/24
