# This file uses centimeters as units for non-parametric coordinates.

mtllib entrada.mtl
g default
v -0.485500 0.464000 -1.644500
v 2.429500 0.464000 -1.644500
v -0.485500 4.390000 -1.644500
v 2.429500 4.390000 -1.644500
v -0.485500 4.390000 -2.119500
v 2.429500 4.390000 -2.119500
v -0.485500 0.464000 -2.119500
v 2.429500 0.464000 -2.119500
v 0.976440 0.464000 -1.644500
v 0.976440 0.464000 -2.119500
v 0.976440 4.390000 -2.119500
v 0.976440 4.390000 -1.644500
vt 0.002812 -0.002658
vt 0.994530 0.007975
vt 0.005470 0.999693
vt 0.991871 0.997035
vt 1.002403 0.997137
vt 0.008231 0.997137
vt 1.002403 0.000307
vt 0.002914 -0.002352
vt 0.002812 0.997341
vt 0.994530 1.007975
vt 0.252914 -0.752352
vt 0.258231 0.747137
vt 0.752403 -0.749693
vt 0.752403 0.747137
vt 0.500181 0.002675
vt 0.500181 1.002675
vt 0.501136 -0.001027
vt 0.503803 0.997137
vt 0.500173 0.998360
vn 0.000000 0.000000 1.000000
vn 0.000000 0.000000 1.000000
vn 0.000000 0.000000 1.000000
vn 0.000000 0.000000 1.000000
vn 0.000000 1.000000 0.000000
vn 0.000000 1.000000 0.000000
vn 0.000000 1.000000 0.000000
vn 0.000000 1.000000 0.000000
vn 0.000000 0.000000 -1.000000
vn 0.000000 0.000000 -1.000000
vn 0.000000 0.000000 -1.000000
vn 0.000000 0.000000 -1.000000
vn 0.000000 -1.000000 0.000000
vn 0.000000 -1.000000 0.000000
vn 0.000000 -1.000000 0.000000
vn 0.000000 -1.000000 0.000000
vn 1.000000 0.000000 0.000000
vn 1.000000 0.000000 0.000000
vn 1.000000 0.000000 0.000000
vn 1.000000 0.000000 0.000000
vn -1.000000 0.000000 0.000000
vn -1.000000 0.000000 0.000000
vn -1.000000 0.000000 0.000000
vn -1.000000 0.000000 0.000000
vn 0.000000 -1.000000 0.000000
vn 0.000000 -1.000000 0.000000
vn 0.000000 0.000000 -1.000000
vn 0.000000 0.000000 -1.000000
vn 0.000000 1.000000 0.000000
vn 0.000000 1.000000 0.000000
vn 0.000000 0.000000 1.000000
vn 0.000000 0.000000 1.000000
s 1
g pCube6
usemtl lambert46SG
f 12/19/1 9/15/2 2/2/3 4/4/4
s 2
usemtl lambert47SG
f 11/18/5 12/19/6 4/4/7 6/6/8
s 3
usemtl lambert46SG
f 10/17/9 11/18/10 6/6/11 8/8/12
s 4
usemtl lambert47SG
f 9/16/13 10/17/14 8/8/15 2/10/16
s off
f 2/2/17 8/11/18 6/12/19 4/4/20
f 7/13/21 1/1/22 3/3/23 5/14/24
s 4
f 7/7/25 10/17/14 9/16/13 1/9/26
s 3
usemtl lambert46SG
f 5/5/27 11/18/10 10/17/9 7/7/28
s 2
usemtl lambert47SG
f 3/3/29 12/19/6 11/18/5 5/5/30
s 1
usemtl lambert46SG
f 1/1/31 9/15/2 12/19/1 3/3/32
