# This file uses centimeters as units for non-parametric coordinates.

mtllib pwindow.mtl
g default
v -1.037145 4.078704 7.631126
v 3.160508 4.078704 7.631126
v -1.037145 0.735305 7.631126
v 3.160508 0.735303 7.631126
v 3.160508 0.735305 7.562221
v -1.037145 0.735303 7.562221
v -1.037145 4.078704 7.562221
v 3.160508 4.078704 7.562221
vt 0.543581 0.210496
vt 0.485699 0.210496
vt 0.485699 0.015871
vt 0.543581 0.015871
vt 0.543581 0.734129
vt 0.485699 0.734129
vt 0.485699 0.539505
vt 0.543581 0.539505
vn -0.000000 0.000000 1.000000
vn -0.000000 0.000000 1.000000
vn -0.000000 0.000000 1.000000
vn -0.000000 0.000000 1.000000
vn 0.000000 0.000000 -1.000000
vn 0.000000 0.000000 -1.000000
vn 0.000000 0.000000 -1.000000
vn 0.000000 0.000000 -1.000000
vn -1.000000 0.000000 0.000000
vn -1.000000 0.000000 0.000000
vn -1.000000 0.000000 0.000000
vn -1.000000 0.000000 0.000000
vn 1.000000 0.000000 0.000000
vn 1.000000 0.000000 0.000000
vn 1.000000 0.000000 0.000000
vn 1.000000 0.000000 0.000000
vn 0.000000 1.000000 0.000000
vn 0.000000 1.000000 0.000000
vn 0.000000 1.000000 0.000000
vn 0.000000 1.000000 0.000000
vn -0.000000 -1.000000 0.000000
vn -0.000000 -1.000000 0.000000
vn -0.000000 -1.000000 0.000000
vn -0.000000 -1.000000 0.000000
s off
g pCube2
usemtl lambert51SG
f 1/2/1 3/3/2 4/4/3 2/1/4
f 6/6/5 7/7/6 8/8/7 5/5/8
f 3/3/9 1/2/10 7/7/11 6/6/12
f 2/1/13 4/4/14 5/5/15 8/8/16
f 1/2/17 2/1/18 8/8/19 7/7/20
f 4/4/21 3/3/22 6/6/23 5/5/24
